<?xml version="1.0" encoding="UTF-8"?>
<svg version="1.1" viewBox="0 0 1600 1600" width="400" height="400" xmlns="http://www.w3.org/2000/svg">
<path transform="translate(0)" d="m0 0h1600v1600h-1600z" fill="#FEFEFE"/>
<path transform="translate(531,553)" d="m0 0h52l8 4 6 8 1 2v18l-4 51-5 88-4 88-2 24-1 4 5-5 14-19 9-13 10-14 14-20 9-12 13-19 12-16 8-12 6-8 12-17 10-14 12-17 13-18 12-17 13-18 12-17 13-17 7-6 11-6 9-2h55l7 3 6 7 2 4v13l-4 15-6 14-10 30-15 43-14 41-6 17-17 49-11 31-7 21-15 43-12 35-5 13-5 18v10l11-3 13-8h5l-1 12-3 25-9 8-17 8-8 4-11 5-21 8-16 6-15 3h-16l-9-2-8-6-4-8-2-7v-17l4-14 6-19 4-8 4-14 6-17 4-9 7-23 2-6h2l2-9 9-26 6-15-3 1h-2l-2 5-15 20-8 11-12 16-14 19-7 9-9 12-16 21-8 11-24 32-14 19-12 14-9 6-7 3-5 1h-15l-12-3-10-6-7-7-3-5-1-4v-20l5-118 1-23v-16l-3 4-6 17-11 25-8 19-10 24-13 30-11 26-8 16-6 11-11 12-8 7-14 8-11 3h-18l-14-3-12-5-20-12-9-7-10-8-9-9-1-7 8-16 5-6 3-6 6 2 11 10v2l12 6h5l3-1 2-5 5-10 9-19 6-16 6-12 8-20 9-20 9-21 11-26 7-16 13-30 24-56 11-26 7-16 13-30 14-33 11-25 8-15 11-11 12-6z" fill="#033580"/>
<path transform="translate(1189,553)" d="m0 0h8l3 2-1 10-15 44-7 19-10 29-14 41-10 29-10 28-8 24-13 37-14 40-26 76-4 11-2 7v10l8-1 13-7 5-3h2l-1 32-2 6-4 5-15 8-11 5-10 5-22 8-9 4-16 5-6 1h-23l-9-3-6-5-5-12-1-11 2-15 6-18 3-5 10-33 5-12 8-26 5-12 9-29 4-9 9-30 4-9 10-32 3-6 8-25 7-20 7-21 8-23 12-36 4-8-22-2-8-2-1-2v-8l4-9 3-10 4-5 11-7 13-4 104-25z" fill="#033580"/>
<path transform="translate(1281,737)" d="m0 0h4v2h5l-1 10-10 32-6 16-9 26-13 37-15 43-13 37-4 12 1 7 8-1 14-8 3-2h3l-1 28-2 10-9 8-23 11-13 6-19 7-15 6-12 3-7 1h-12l-11-2-8-6-6-10-2-6v-15l4-13 15-44 6-17 9-27 14-41 12-36 1-2h-16l-14-1-4-2 6-16 7-14 8-8 54-14 35-8 26-7z" fill="#033580"/>
<path transform="translate(968,737)" d="m0 0h3v3h7l2 4-2 6-4 8-4 15-5 15-3 5-10 33-4 8-9 29-4 8-11 33-6 16-6 20-4 8-1 7 1 4 3 1 12-5 10-6h4l-2 16-2 22-9 8-21 9-6 4-27 10-12 5-14 4-6 1h-18l-9-2-7-6-6-10-2-8v-8l3-14 5-13 7-22 7-19 5-16 12-36 7-20 13-39 2-5-32-2-1-2 4-12 7-17 7-7 11-4 32-8 14-4 36-8 21-6z" fill="#033580"/>
<path transform="translate(1242,634)" d="m0 0h21l13 4 12 6 7 7 5 10 1 6v10l-2 10-6 12-14 15-13 9-11 5-14 5-11 2h-19l-13-4-10-5-9-8-5-10-1-4v-14l2-9 6-11 12-13 13-10 15-7 15-5z" fill="#033580"/>
<path transform="translate(933,634)" d="m0 0h14l14 4 16 8 7 9 3 7 1 11-2 14-6 12-11 13-10 8-10 6-22 8-14 2h-11l-12-2-16-8-9-9-4-8-1-4v-15l3-10 6-10 8-10 13-10 10-6 19-7z" fill="#033580"/>
</svg>
