<?xml version="1.0" encoding="UTF-8"?>
<svg version="1.1" viewBox="0 0 800 800" width="200" height="200" xmlns="http://www.w3.org/2000/svg">
<path transform="translate(0)" d="m0 0h800v800h-800z" fill="#023C7F"/>
<path transform="translate(267,275)" d="m0 0h22l8 2 3 3v28l-2 32-1 26-3 44v14l7-10 39-54 24-34 26-36 8-10 8-4 6-1h25l6 2 4 4 1 6-13 40-14 39-10 30-14 39-10 29-6 18v6l5-1 8-4 1 1v9l-2 11-5 3-23 11-14 5-16 2-8-3-4-5-2-7 1-9 7-21 12-34 9-24v-2l-11 15-16 21-8 11-10 13-13 18-14 18-7 6-10 3-9-1-8-4-5-6-1-2v-20l2-36v-35l-6 15-13 30-14 33-8 13-9 8-9 4-4 1h-8l-13-4-14-8-11-9-2-3v-5l5-8 3-4 5 1 4 5 5 3h5l8-16 26-60 24-56 13-30 15-35 6-11 9-8z" fill="#FEFFFE"/>
<path transform="translate(615,275)" d="m0 0 3 1-1 7-10 29-17 50-13 37-11 31-10 29-8 23v7l7-3 3-2 5 1-2 18-4 4-24 11-18 6-4 1h-11l-6-3-5-8v-12l12-36 16-47 14-40 12-36 11-31-6 1-10-1-1-5 6-12 5-4 27-7 28-7z" fill="#FEFFFE"/>
<path transform="translate(495,372)" d="m0 0h6l-1 10-13 38-15 42-7 21-1 6 8-3 5-3 3 1-2 17-3 5-21 10-16 6-13 3h-7l-7-3-4-5-2-10 4-15 14-40 14-42h-13l-4-2 1-6 6-11 5-3 18-5 32-8z" fill="#FEFFFE"/>
<path transform="translate(659,372)" d="m0 0h6l1 4-12 36-13 37-12 35v4l6-2 7-3 1 1v17l-5 5-16 8-20 8-9 2h-13l-6-3-3-5-1-4v-8l5-17 16-47 10-29-8-1-7-1-1-5 4-10 4-5 16-5 36-9z" fill="#FEFFFE"/>
<path transform="translate(643,317)" d="m0 0 11 1 10 4 6 7 1 2v13l-4 8-7 8-14 8-12 3-13-1-10-4-5-6-3-8 1-7 5-10 8-8 10-6z" fill="#FEFFFE"/>
<path transform="translate(474,318)" d="m0 0h13l11 4 8 9 1 8-3 10-6 8-8 7-11 5-8 2h-14l-10-4-7-8-1-3v-10l6-12 9-8 12-6z" fill="#FEFFFE"/>
</svg>
